<svg xmlns="http://www.w3.org/2000/svg" width="256" height="256" viewBox="0 0 256 256">
  <defs>
    <linearGradient id="bg" x1="0" x2="1" y1="0" y2="1">
      <stop offset="0" stop-color="#5eead4" stop-opacity="0.32"/>
      <stop offset="1" stop-color="#22c55e" stop-opacity="0.18"/>
    </linearGradient>
    <linearGradient id="coat" x1="0" x2="1" y1="0" y2="1">
      <stop offset="0" stop-color="#ffffff"/>
      <stop offset="1" stop-color="#e5e7eb"/>
    </linearGradient>
  </defs>
  <rect width="256" height="256" rx="44" fill="url(#bg)"/>
  <circle cx="128" cy="96" r="46" fill="#f8d2bf"/>
  <path d="M66 214c14-52 46-74 62-74s48 22 62 74" fill="url(#coat)"/>
  <path d="M88 92c10-24 26-36 40-36s30 12 40 36" fill="#111827" opacity="0.92"/>
  <path d="M98 86c10 10 20 14 30 14s20-4 30-14" fill="none" stroke="#111827" stroke-width="10" stroke-linecap="round" opacity="0.9"/>
  <circle cx="110" cy="104" r="6" fill="#111827"/>
  <circle cx="146" cy="104" r="6" fill="#111827"/>
  <path d="M116 124c6 6 18 6 24 0" fill="none" stroke="#b45309" stroke-width="6" stroke-linecap="round"/>
  <path d="M108 152c12 10 28 10 40 0" fill="none" stroke="#cbd5e1" stroke-width="10" stroke-linecap="round"/>
  <circle cx="170" cy="188" r="10" fill="#22c55e" opacity="0.9"/>
</svg>
