<svg xmlns="http://www.w3.org/2000/svg" width="256" height="256" viewBox="0 0 256 256">
  <defs>
    <linearGradient id="bg" x1="0" x2="1" y1="0" y2="1">
      <stop offset="0" stop-color="#60a5fa" stop-opacity="0.35"/>
      <stop offset="1" stop-color="#5eead4" stop-opacity="0.25"/>
    </linearGradient>
    <linearGradient id="coat" x1="0" x2="1" y1="0" y2="1">
      <stop offset="0" stop-color="#f8fafc"/>
      <stop offset="1" stop-color="#e2e8f0"/>
    </linearGradient>
  </defs>
  <rect x="0" y="0" width="256" height="256" rx="44" fill="url(#bg)"/>
  <circle cx="128" cy="98" r="46" fill="#ffd7c2"/>
  <path d="M74 210c10-44 38-66 54-66s44 22 54 66" fill="url(#coat)" opacity="0.95"/>
  <path d="M96 150c14 12 22 18 32 18s18-6 32-18" fill="none" stroke="#cbd5e1" stroke-width="10" stroke-linecap="round"/>
  <path d="M96 92c10-18 24-28 32-28s22 10 32 28" fill="#1f2937" opacity="0.9"/>
  <circle cx="110" cy="104" r="6" fill="#1f2937"/>
  <circle cx="146" cy="104" r="6" fill="#1f2937"/>
  <path d="M116 124c6 6 18 6 24 0" fill="none" stroke="#b45309" stroke-width="6" stroke-linecap="round"/>
  <path d="M128 156v44" stroke="#60a5fa" stroke-width="10" stroke-linecap="round"/>
  <path d="M114 176h28" stroke="#60a5fa" stroke-width="10" stroke-linecap="round"/>
</svg>
