<svg xmlns="http://www.w3.org/2000/svg" width="256" height="256" viewBox="0 0 256 256">
  <defs>
    <linearGradient id="bg" x1="0" x2="1" y1="0" y2="1">
      <stop offset="0" stop-color="#a78bfa" stop-opacity="0.35"/>
      <stop offset="1" stop-color="#60a5fa" stop-opacity="0.22"/>
    </linearGradient>
    <linearGradient id="scrub" x1="0" x2="1" y1="0" y2="1">
      <stop offset="0" stop-color="#0ea5e9" stop-opacity="0.9"/>
      <stop offset="1" stop-color="#2563eb" stop-opacity="0.85"/>
    </linearGradient>
  </defs>
  <rect width="256" height="256" rx="44" fill="url(#bg)"/>
  <circle cx="128" cy="96" r="46" fill="#ffd7c2"/>
  <path d="M70 214c12-48 40-72 58-72s46 24 58 72" fill="url(#scrub)"/>
  <path d="M98 76c9-16 19-26 30-26s21 10 30 26" fill="#0f172a" opacity="0.9"/>
  <circle cx="110" cy="102" r="6" fill="#0f172a"/>
  <circle cx="146" cy="102" r="6" fill="#0f172a"/>
  <path d="M116 122c6 6 18 6 24 0" fill="none" stroke="#b45309" stroke-width="6" stroke-linecap="round"/>
  <path d="M92 158h72" stroke="#e2e8f0" stroke-width="10" stroke-linecap="round" opacity="0.9"/>
  <path d="M128 146v52" stroke="#e2e8f0" stroke-width="10" stroke-linecap="round" opacity="0.7"/>
</svg>
