<svg xmlns="http://www.w3.org/2000/svg" width="256" height="256" viewBox="0 0 256 256">
  <defs>
    <linearGradient id="bg" x1="0" x2="1" y1="0" y2="1">
      <stop offset="0" stop-color="#fb7185" stop-opacity="0.22"/>
      <stop offset="1" stop-color="#60a5fa" stop-opacity="0.22"/>
    </linearGradient>
    <linearGradient id="scrub" x1="0" x2="1" y1="0" y2="1">
      <stop offset="0" stop-color="#22c55e" stop-opacity="0.9"/>
      <stop offset="1" stop-color="#16a34a" stop-opacity="0.85"/>
    </linearGradient>
  </defs>
  <rect width="256" height="256" rx="44" fill="url(#bg)"/>
  <circle cx="128" cy="96" r="46" fill="#ffd7c2"/>
  <path d="M72 214c12-48 40-72 56-72s44 24 56 72" fill="url(#scrub)"/>
  <path d="M92 88c14-18 26-28 36-28s22 10 36 28" fill="#0f172a" opacity="0.9"/>
  <circle cx="110" cy="104" r="6" fill="#0f172a"/>
  <circle cx="146" cy="104" r="6" fill="#0f172a"/>
  <path d="M116 124c6 6 18 6 24 0" fill="none" stroke="#b45309" stroke-width="6" stroke-linecap="round"/>
  <path d="M106 158h44" stroke="#dcfce7" stroke-width="10" stroke-linecap="round" opacity="0.9"/>
  <path d="M150 158l12 12" stroke="#dcfce7" stroke-width="10" stroke-linecap="round" opacity="0.8"/>
</svg>
