<svg xmlns="http://www.w3.org/2000/svg" width="512" height="320" viewBox="0 0 512 320">
  <defs>
    <linearGradient id="bg" x1="0" y1="0" x2="1" y2="1">
      <stop offset="0" stop-color="#6d28d9" stop-opacity="0.08"/>
      <stop offset="1" stop-color="#2563eb" stop-opacity="0.06"/>
    </linearGradient>
    <linearGradient id="acc" x1="0" y1="0" x2="1" y2="1">
      <stop offset="0" stop-color="#6d28d9" stop-opacity="0.7"/>
      <stop offset="1" stop-color="#2563eb" stop-opacity="0.6"/>
    </linearGradient>
  </defs>
  <rect width="512" height="320" rx="36" fill="url(#bg)"/>

  <!-- Bed -->
  <rect x="96" y="204" width="312" height="26" rx="13" fill="#0f172a" opacity="0.10"/>
  <rect x="118" y="156" width="290" height="58" rx="18" fill="#ffffff" stroke="#0f172a" stroke-opacity="0.10" stroke-width="3"/>
  <rect x="118" y="168" width="86" height="34" rx="12" fill="#eef2ff"/>
  <rect x="112" y="156" width="14" height="92" rx="7" fill="#0f172a" opacity="0.12"/>
  <rect x="402" y="156" width="14" height="92" rx="7" fill="#0f172a" opacity="0.12"/>

  <!-- Patient -->
  <circle cx="232" cy="178" r="14" fill="#fde2d2"/>
  <rect x="244" y="170" width="102" height="28" rx="14" fill="#e0e7ff"/>
  <rect x="240" y="188" width="142" height="18" rx="9" fill="#c7d2fe" opacity="0.75"/>

  <!-- Doctor -->
  <circle cx="150" cy="122" r="22" fill="#fde2d2"/>
  <path d="M118 176c10-36 28-54 42-54s32 18 42 54" fill="#ffffff" stroke="#0f172a" stroke-opacity="0.08" stroke-width="3"/>
  <path d="M146 142v18" stroke="url(#acc)" stroke-width="10" stroke-linecap="round"/>
  <path d="M136 152h20" stroke="url(#acc)" stroke-width="10" stroke-linecap="round"/>

  <!-- Accent bubbles -->
  <circle cx="420" cy="98" r="18" fill="#6d28d9" opacity="0.12"/>
  <circle cx="452" cy="132" r="10" fill="#2563eb" opacity="0.12"/>
</svg>
